<svg viewBox="0 0 24 24" width="1em" height="1em" fill="currentColor"
    class="zds-icon RC794g X9n9TI DlJ4rT _5Yd-hZ SpRgR2 HlZ_Tf Ik4W2Q" focusable="false" aria-hidden="true">
    <path
        d="M19.877 5.998h-.007a9.05 9.05 0 0 0-5.684-4.256C13.953.748 13.063.002 12 .002s-1.953.746-2.186 1.74A9.06 9.06 0 0 0 4.13 5.999h-.006c-1.24 0-2.25 1.009-2.25 2.25s1.01 2.25 2.25 2.25 2.25-1.01 2.25-2.25a2.24 2.24 0 0 0-.82-1.723 7.57 7.57 0 0 1 4.437-3.28A2.25 2.25 0 0 0 12 4.503c.882 0 1.64-.516 2.008-1.257a7.7 7.7 0 0 1 4.438 3.28 2.24 2.24 0 0 0-.82 1.722c0 1.24 1.01 2.25 2.25 2.25s2.25-1.01 2.25-2.25-1.01-2.25-2.25-2.25m-15.753 3c-.413 0-.75-.337-.75-.75s.337-.75.75-.75.75.337.75.75-.337.75-.75.75M12 3.003c-.413 0-.75-.337-.75-.75s.337-.75.75-.75.75.337.75.75-.337.75-.75.75m7.877 5.995c-.413 0-.75-.337-.75-.75s.337-.75.75-.75.75.337.75.75-.337.75-.75.75" fill="white" >
    </path>
    <path
        d="M18.49 19.609c-.345-2.126-1.544-8.196-4.243-10.59l.003-.027c0-1.24-1.01-2.25-2.25-2.25s-2.25 1.01-2.25 2.25l.002.027C7.08 11.39 5.876 17.376 5.52 19.552a2.25 2.25 0 0 0-1.77 2.195c0 1.24 1.01 2.25 2.25 2.25s2.25-1.01 2.25-2.25c0-.876-.509-1.63-1.242-2 .574-3.532 1.773-7.423 3.354-9.224.41.44.991.72 1.639.72s1.228-.28 1.64-.72c1.568 1.786 2.761 5.632 3.34 9.142a2.25 2.25 0 0 0-1.404 2.082c0 1.24 1.01 2.25 2.25 2.25s2.25-1.01 2.25-2.25a2.25 2.25 0 0 0-1.586-2.138M6 22.497c-.413 0-.75-.337-.75-.75s.337-.75.75-.75.75.337.75.75-.337.75-.75.75m6-12.755c-.413 0-.75-.337-.75-.75s.337-.75.75-.75.75.337.75.75-.337.75-.75.75m5.826 12.755c-.413 0-.75-.337-.75-.75s.337-.75.75-.75.75.337.75.75-.337.75-.75.75" fill="wheat" >
    </path>
</svg>